<svg id="Layer_1" enable-background="new 0 0 512.111 512.111" height="512" viewBox="0 0 512.111 512.111" width="512" xmlns="http://www.w3.org/2000/svg"><path d="m433.611 361.902c21.229 0 38.5-17.047 38.5-38h40c0 43.009-35.215 78-78.5 78-23.771 0-45.093-10.568-59.5-27.207-14.407 16.639-35.729 27.207-59.5 27.207-23.224 0-44.115-10.081-58.5-26.06-14.385 15.979-35.276 26.06-58.5 26.06-23.771 0-45.093-10.568-59.5-27.207-14.407 16.639-35.729 27.207-59.5 27.207-43.285 0-78.5-34.991-78.5-78h40c0 20.953 17.271 38 38.5 38s38.5-17.047 38.5-38h42c0 20.953 17.271 38 38.5 38s38.5-17.047 38.5-38h40c0 20.953 17.271 38 38.5 38s38.5-17.047 38.5-38h42c0 20.953 17.272 38 38.5 38zm0 110c-21.229 0-38.5-17.047-38.5-38h-42c0 20.953-17.271 38-38.5 38s-38.5-17.047-38.5-38h-40c0 20.953-17.271 38-38.5 38s-38.5-17.047-38.5-38h-42c0 20.953-17.271 38-38.5 38s-38.5-17.047-38.5-38h-40c0 43.009 35.215 78 78.5 78 23.771 0 45.093-10.568 59.5-27.207 14.407 16.639 35.729 27.207 59.5 27.207 23.224 0 44.115-10.081 58.5-26.06 14.385 15.979 35.276 26.06 58.5 26.06 23.771 0 45.093-10.568 59.5-27.207 14.407 16.639 35.729 27.207 59.5 27.207 43.285 0 78.5-34.991 78.5-78h-40c0 20.953-17.271 38-38.5 38zm-379.25-352.006c37.824-.929 81.544 12.526 91.985 40.066.003.007.005.012.008.019l37.41-14.158c-14.521-38.368 25.068-92.481 66.458-108.228l-14.222-37.386c-28.958 11.017-56.994 34.719-74.998 63.405-7.824 12.467-13.425 25.144-16.748 37.686-26.166-15.463-60.005-22.156-90.883-21.391-18.796.465-37.252 3.952-53.371 10.084l14.223 37.386c11.765-4.475 26.02-7.133 40.138-7.483zm252.746 54.005c30.845.281 57.777 12.45 64.039 28.935l37.393-14.203c-4.597-12.104-1.558-28.056 8.339-43.769 9.995-15.869 25.831-29.376 41.327-35.251l-14.18-37.402c-23.575 8.937-46.376 28.128-60.993 51.335-5.259 8.349-9.29 16.829-12.069 25.279-1.551-.816-3.142-1.604-4.769-2.362-16.976-7.91-37.83-12.371-58.724-12.561-16.466-.16-33.785 2.884-48.713 8.542l14.18 37.402c10.396-3.939 22.519-6.036 34.17-5.945z"/></svg>